HIERARCHY
ROOT Hips
{
	OFFSET 62.890800 8.863803 43.568401
	CHANNELS 6 Xposition Yposition Zposition Zrotation Xrotation Yrotation
	JOINT Chest
	{
		OFFSET -0.160400 1.630001 7.806301
		CHANNELS 6 Xposition Yposition Zposition Zrotation Xrotation Yrotation
		JOINT Chest2
		{
			OFFSET 0.000000 0.000000 3.197998
			CHANNELS 6 Xposition Yposition Zposition Zrotation Xrotation Yrotation
			JOINT Neck
			{
				OFFSET 0.000000 0.000001 7.440701
				CHANNELS 6 Xposition Yposition Zposition Zrotation Xrotation Yrotation
				JOINT Head
				{
					OFFSET 0.000000 0.000000 2.173901
					CHANNELS 6 Xposition Yposition Zposition Zrotation Xrotation Yrotation
					End Site
					{
						OFFSET 0.000000 0.000001 10.420303
					}
				}
			}
			JOINT LeftCollar
			{
				OFFSET 2.426399 -1.880099 4.759399
				CHANNELS 6 Xposition Yposition Zposition Zrotation Xrotation Yrotation
				JOINT LeftShoulder
				{
					OFFSET 4.420197 0.000000 0.000000
					CHANNELS 6 Xposition Yposition Zposition Zrotation Xrotation Yrotation
					JOINT LeftElbow
					{
						OFFSET 0.000000 -0.000001 -10.347099
						CHANNELS 6 Xposition Yposition Zposition Zrotation Xrotation Yrotation
						JOINT LeftWrist
						{
							OFFSET 0.000000 -0.000001 -12.496300
							CHANNELS 6 Xposition Yposition Zposition Zrotation Xrotation Yrotation
							End Site
							{
								OFFSET 0.000000 0.000000 -2.173901
							}
						}
					}
				}
			}
			JOINT RightCollar
			{
				OFFSET -2.781502 -1.903799 5.072601
				CHANNELS 6 Xposition Yposition Zposition Zrotation Xrotation Yrotation
				JOINT RightShoulder
				{
					OFFSET -4.012100 0.000000 0.000000
					CHANNELS 6 Xposition Yposition Zposition Zrotation Xrotation Yrotation
					JOINT RightElbow
					{
						OFFSET 0.000000 -0.000001 -10.346600
						CHANNELS 6 Xposition Yposition Zposition Zrotation Xrotation Yrotation
						JOINT RightWrist
						{
							OFFSET 0.000000 -0.000001 -12.562599
							CHANNELS 6 Xposition Yposition Zposition Zrotation Xrotation Yrotation
							End Site
							{
								OFFSET 0.000000 0.000000 -2.173901
							}
						}
					}
				}
			}
		}
	}
	JOINT LeftHip
	{
		OFFSET 2.047997 -0.047200 -2.693199
		CHANNELS 6 Xposition Yposition Zposition Zrotation Xrotation Yrotation
		JOINT LeftKnee
		{
			OFFSET 0.000000 -0.000001 -18.824400
			CHANNELS 6 Xposition Yposition Zposition Zrotation Xrotation Yrotation
			JOINT LeftAnkle
			{
				OFFSET 0.000000 -0.000002 -19.078199
				CHANNELS 6 Xposition Yposition Zposition Zrotation Xrotation Yrotation
				End Site
				{
					OFFSET 0.000000 -9.342100 0.000001
				}
			}
		}
	}
	JOINT RightHip
	{
		OFFSET -2.129898 -0.022300 -2.538300
		CHANNELS 6 Xposition Yposition Zposition Zrotation Xrotation Yrotation
		JOINT RightKnee
		{
			OFFSET 0.000000 -0.000001 -18.644600
			CHANNELS 6 Xposition Yposition Zposition Zrotation Xrotation Yrotation
			JOINT RightAnkle
			{
				OFFSET 0.000000 -0.000002 -18.801399
				CHANNELS 6 Xposition Yposition Zposition Zrotation Xrotation Yrotation
				End Site
				{
					OFFSET 0.000000 -8.914600 0.000001
				}
			}
		}
	}
}
MOTION
Frames: 4
Frame Time: 0.041667
40.906696 30.610310 44.345879 -84.114763 -13.583068 0.629078 -0.160401 1.630000 7.806305 -7.405986 14.180132 0.864077 0.000006 -0.000005 3.197992 1.589868 -2.945680 0.327591 -0.000005 -0.000001 7.440696 4.026604 41.677749 -2.246507 -0.000002 0.000012 2.173914 1.972434 6.482927 1.491580 2.426398 -1.880099 4.759396 -169.420411 182.903040 -203.576520 4.420199 -0.000008 -0.000008 -55.279142 -9.772274 -122.230620 0.000005 -0.000003 -10.347096 568.024650 -174.962372 -179.708288 -0.000007 0.000009 -12.496294 80.221412 11.167745 375.795150 -2.781497 -1.903797 5.072601 -181.627598 -190.713594 201.280197 -4.012098 0.000003 -0.000008 40.896632 -12.672177 493.713886 0.000003 0.000002 -10.346601 -351.613822 7.325427 3.367317 -0.000005 -0.000004 -12.562601 1514.687230 -170.574426 121.820508 2.047997 -0.047201 -2.693201 358.881280 2.520198 -18.626214 -0.000000 0.000004 -18.824400 180.575886 151.347075 -176.146276 0.000000 -0.000003 -19.078199 -374.436653 8.639493 2.799262 -2.129891 -0.022301 -2.538299 -358.406745 7.231670 17.722082 -0.000002 -0.000002 -18.644606 161.130105 148.920786 178.880127 -0.000000 -0.000005 -18.801401 5.929869 15.979830 -2.996576
40.925301 30.618214 44.168381 -83.717861 -14.714512 0.979251 -0.160405 1.630006 7.806307 -7.921828 14.328741 0.997043 0.000004 0.000004 3.198000 1.817039 -2.886424 0.123906 -0.000009 -0.000004 7.440708 3.989059 41.514040 -2.179093 0.000001 0.000005 2.173916 1.992145 6.710598 1.432021 2.426399 -1.880109 4.759398 -169.269286 183.419102 -204.329754 4.420193 -0.000001 0.000006 -56.075556 -12.731053 -119.664750 -0.000002 -0.000003 -10.347088 577.183988 -172.745251 -177.518447 -0.000001 0.000008 -12.496308 68.247899 9.887831 376.043141 -2.781501 -1.903810 5.072616 -181.845331 -190.164570 200.458389 -4.012090 0.000008 -0.000006 45.064673 -14.740429 495.063367 0.000001 -0.000009 -10.346591 -361.110626 4.265373 3.649873 -0.000007 -0.000003 -12.562593 1542.297368 -164.108518 131.532218 2.047998 -0.047196 -2.693193 359.006190 2.710121 -19.086246 -0.000001 -0.000003 -18.824406 178.834051 149.953333 -175.554494 -0.000004 -0.000001 -19.078203 -373.842153 7.612358 2.566131 -2.129898 -0.022292 -2.538296 -357.536361 8.419737 17.402808 -0.000002 -0.000004 -18.644600 162.105169 148.101765 177.987968 -0.000005 -0.000001 -18.801399 4.223364 15.339126 -3.157064
40.933895 30.634308 43.977081 -83.296466 -15.936657 1.059191 -0.160406 1.629997 7.806297 -8.539919 14.455966 1.481581 0.000009 0.000002 3.198002 2.014651 -2.825896 -0.117705 -0.000005 -0.000004 7.440697 4.055242 41.292417 -2.218811 -0.000002 0.000001 2.173907 2.017878 6.973612 1.311832 2.426403 -1.880100 4.759397 -169.194673 183.750735 -204.446536 4.420189 0.000007 0.000007 -56.453545 -15.907593 -117.184053 0.000005 -0.000001 -10.347095 573.528471 -169.756907 -177.015308 0.000000 0.000006 -12.496305 68.430600 9.225480 376.528385 -2.781502 -1.903803 5.072603 -181.787793 -189.853250 199.562363 -4.012101 -0.000001 -0.000008 47.069644 -15.776508 495.515362 -0.000000 -0.000005 -10.346605 -372.764787 0.410813 2.972712 0.000005 -0.000004 -12.562604 1573.662143 -160.369440 145.586425 2.047997 -0.047206 -2.693204 358.946385 3.014517 -19.305161 -0.000001 -0.000005 -18.824398 176.919549 148.517696 -174.713165 -0.000002 -0.000011 -19.078199 -372.765661 6.628447 2.384182 -2.129907 -0.022306 -2.538302 -356.631962 9.731152 17.336407 0.000001 -0.000002 -18.644598 163.039348 147.282811 176.993369 -0.000001 -0.000001 -18.801397 2.539260 14.736388 -3.328057
40.929398 30.654507 43.774078 -82.982215 -17.213040 1.385637 -0.160396 1.630004 7.806315 -9.129968 14.666520 1.735017 0.000006 0.000006 3.197998 2.328381 -2.810048 0.119910 -0.000006 0.000003 7.440708 4.634691 40.967003 -3.025555 -0.000000 0.000003 2.173905 2.008764 7.255017 1.235074 2.426403 -1.880095 4.759405 -169.057769 184.423290 -205.930723 4.420202 -0.000003 0.000006 -56.027656 -20.249390 -113.279254 0.000009 0.000002 -10.347094 569.533849 -165.942533 -176.756881 -0.000007 0.000008 -12.496305 68.590201 8.698236 376.964916 -2.781505 -1.903794 5.072608 -181.553969 -189.626924 197.703309 -4.012101 -0.000003 -0.000001 47.972674 -16.018161 495.476730 0.000010 0.000004 -10.346594 -383.722814 -3.452260 0.953506 -0.000010 0.000001 -12.562602 1604.364881 -160.565590 160.733298 2.048004 -0.047198 -2.693197 358.667467 3.546868 -19.812050 -0.000001 -0.000001 -18.824406 174.639591 147.133039 -173.481928 -0.000004 -0.000011 -19.078199 -371.256298 5.644166 2.317202 -2.129894 -0.022296 -2.538294 -355.557792 11.076210 16.969175 0.000003 0.000001 -18.644600 164.081730 146.443012 175.852864 -0.000005 -0.000004 -18.801397 0.851227 14.131521 -3.492801
